# xmcd
#
# Track frame offsets: 
#        150
#        12655
#        30820
#        41858
#        59096
#        75302
#        89924
#        106590
#        120706
#        133579
#        148674
#        166040
#        186440
#
# Disc length: 2680 seconds
#
# Revision: 0
# Processed by: cddbd v1.5.2PL0 Copyright (c) Steve Scherf et al.
# Submitted via: ExactAudioCopy v0.95b3
#
DISCID=ae0a760d
DTITLE=Johnny Bush - Texas State Of Mind
DYEAR=2006
DGENRE=Country
TTITLE0=Mental Revenge
TTITLE1=Has It Been That Bad For You?
TTITLE2=I Can´t See Texas From Here
TTITLE3=Wino´s Prayer
TTITLE4=But I Didn´t Every Chance I Had
TTITLE5=Eye For An Eye
TTITLE6=Goin´ Away Party
TTITLE7=Texas State Of Mind
TTITLE8=Honky Tonk Stardust Cowboy
TTITLE9=Ain´t Your Memory Got No Pride At All ?
TTITLE10=In My Dream
TTITLE11=Opportunity To Cry
TTITLE12=I´m Not Crazy Yet
EXTD=
EXTT0=
EXTT1=
EXTT2=
EXTT3=
EXTT4=
EXTT5=
EXTT6=
EXTT7=
EXTT8=
EXTT9=
EXTT10=
EXTT11=
EXTT12=
PLAYORDER=
